<?xml version="1.0" encoding="UTF-8" standalone="no"?>
<!-- Created with Inkscape (http://www.inkscape.org/) -->

<svg
   width="22mm"
   height="6mm"
   viewBox="0 0 22 6"
   version="1.1"
   id="svg1"
   xml:space="preserve"
   xmlns="http://www.w3.org/2000/svg"
   xmlns:svg="http://www.w3.org/2000/svg"><defs
     id="defs1"><rect
       x="128.90221"
       y="37.600163"
       width="49.632214"
       height="1.5040065"
       id="rect2" /><rect
       x="26.895176"
       y="21.940802"
       width="436.69272"
       height="156.41669"
       id="rect1" /><rect
       x="26.895176"
       y="21.940802"
       width="436.69272"
       height="156.41669"
       id="rect3" /></defs><g
     id="layer1"><path
       style="fill:#00b400;fill-opacity:1;stroke-width:1"
       d="m 18.347966,4.5480309 -0.0038,-0.677109 -0.704729,-0.0064 -0.704728,-0.0064 V 3.1457145 2.4333075 l 0.704728,-0.0064 0.704729,-0.0064 0.0038,-0.677108 0.0038,-0.677108 h 0.748643 0.748644 v 0.680317 0.680317 h 0.704728 0.704728 v 0.718825 0.7188244 H 20.553747 19.84902 v 0.680318 0.680317 h -0.748644 -0.748644 z"
       id="path3" /><path
       id="path2"
       style="fill:#008000;stroke-width:1"
       d="M 4.7034367,0.32368417 V 2.3607692 C 4.6292287,2.1367321 4.5354677,1.9706698 4.4217997,1.8631252 4.3092707,1.7533436 4.1740517,1.6982773 4.0156227,1.6982773 c -0.259532,0 -0.471054,0.1817089 -0.634586,0.5446696 -0.162355,0.3629642 -0.243913,0.8399449 -0.243913,1.4314372 0,0.5914958 0.081558,1.0689928 0.243913,1.4319538 0.163591,0.362964 0.375113,0.544153 0.634586,0.544153 0.158468,0 0.293687,-0.053686 0.406177,-0.16123 0.113668,-0.109817 0.207429,-0.276708 0.281637,-0.500745 v 0.564823 h 0.35295 V 0.32368417 Z m 8.2212033,0 V 1.107099 h 0.352433 V 0.32368417 Z M 0.45149965,0.53555757 V 1.107099 H 2.2172827 L 0.40705765,5.0355409 v 0.517798 H 2.7443827 V 4.9817979 H 0.89023265 L 2.7004577,1.0533555 V 0.53555757 Z m 18.16529935,0.2661336 -0.0041,0.67696133 -0.0036,0.6769613 -0.704867,0.00672 -0.704866,0.0062 V 2.880635 3.593253 l 0.704866,0.0062 0.704867,0.00672 0.0036,0.6769617 0.0041,0.677478 h 0.748275 0.748791 V 4.2800319 3.5999701 h 0.704867 0.70435 V 2.8811509 2.1623317 h -0.70435 -0.704867 V 1.4817531 0.80169117 H 19.365074 Z M 6.8469747,1.6982773 c -0.17007,0 -0.314276,0.05593 -0.433049,0.1679485 -0.118772,0.1097816 -0.215696,0.2789172 -0.289904,0.5074625 V 1.7892279 h -0.354501 v 3.763595 h 0.354501 V 3.5699977 c 0,-0.4257151 0.053152,-0.7514441 0.159163,-0.9777181 0.107347,-0.2285453 0.261037,-0.3431315 0.460437,-0.3431315 0.056343,0 0.107024,0.010185 0.152962,0.030489 0.047313,0.01793 0.091086,0.047516 0.130742,0.08785 l -0.00207,-0.6351033 c -0.03573,-0.011357 -0.068221,-0.019297 -0.097669,-0.023771 -0.029447,-0.00688 -0.056272,-0.010335 -0.080615,-0.010336 z m 1.296045,0 c -0.308003,0 -0.549388,0.1749974 -0.724504,0.5245158 -0.173741,0.3495185 -0.260966,0.8332109 -0.260966,1.451591 0,0.6161398 0.087225,1.1003488 0.260966,1.4521078 0.175096,0.349522 0.416482,0.523999 0.724504,0.523999 0.306746,0 0.547838,-0.174477 0.722953,-0.523999 0.175115,-0.351759 0.262516,-0.835968 0.262516,-1.4521078 0,-0.6183801 -0.087401,-1.1020725 -0.262516,-1.451591 C 8.6908577,1.8732747 8.4497657,1.6982773 8.1430197,1.6982773 Z m 6.7716803,0 c -0.322099,0 -0.578518,0.1817089 -0.768946,0.5446696 -0.18925,0.3607238 -0.283703,0.8488871 -0.283703,1.4650269 0,0.5959731 0.09931,1.0689991 0.298689,1.4185181 0.200657,0.349522 0.472403,0.523999 0.814938,0.523999 0.136774,0 0.271719,-0.024616 0.404626,-0.073897 0.133025,-0.049316 0.262695,-0.120886 0.389124,-0.214974 v -0.584461 c -0.125251,0.116493 -0.252019,0.203736 -0.379822,0.262 -0.126566,0.058263 -0.257282,0.087333 -0.392741,0.087333 -0.233991,0 -0.416754,-0.110996 -0.548287,-0.332796 -0.129962,-0.224051 -0.202886,-0.54892 -0.218591,-0.974618 H 15.85211 V 3.516771 c 0,-0.5601305 -0.08458,-1.0026966 -0.253214,-1.3275675 C 15.431456,1.8620956 15.203542,1.6982773 14.9147,1.6982773 Z m -5.4069063,0.090951 0.5622403,3.764111 h 0.415995 l 0.463538,-3.0850827 0.461987,3.0850827 h 0.416512 l 0.561723,-3.764111 h -0.35295 l -0.43925,2.937288 -0.4408,-2.937288 h -0.415995 l -0.43925,2.937288 -0.4407993,-2.937288 z m 3.4168463,0 v 3.764111 h 0.352433 V 1.7892279 Z M 4.1014057,2.2160752 c 0.18658,0 0.333931,0.1297435 0.441317,0.3896403 0.107386,0.2576598 0.160714,0.6138458 0.160714,1.0686686 0,0.4548258 -0.053328,0.8123888 -0.160714,1.0722858 -0.107464,0.25766 -0.254815,0.38654 -0.441317,0.38654 -0.18658,0 -0.333414,-0.12888 -0.4408,-0.38654 -0.106011,-0.2599 -0.159163,-0.617463 -0.159163,-1.0722858 0,-0.4548228 0.053152,-0.8110088 0.159163,-1.0686686 0.107268,-0.2598968 0.254102,-0.3896403 0.4408,-0.3896403 z m 4.041614,0.00672 c 0.187876,0 0.336546,0.131124 0.446484,0.3932577 0.109938,0.2598967 0.164848,0.612472 0.164848,1.0583333 0,0.4481048 -0.05491,0.8025708 -0.164848,1.0624678 -0.109938,0.259896 -0.258608,0.38964 -0.446484,0.38964 -0.190409,0 -0.340681,-0.12888 -0.450619,-0.38654 -0.108563,-0.2599 -0.16278,-0.615226 -0.16278,-1.0655678 0,-0.4503386 0.05491,-0.8042908 0.164847,-1.0619507 0.109821,-0.2598967 0.259302,-0.3896403 0.448552,-0.3896403 z m 6.7752973,0 c 0.1738,0 0.313229,0.1006738 0.418062,0.3023072 0.106601,0.2016368 0.160818,0.4719595 0.162781,0.8102864 l -1.257288,0.0031 c 0.01787,-0.3540026 0.08549,-0.628283 0.203089,-0.8232056 0.11887,-0.1949225 0.276528,-0.2924886 0.473356,-0.292488 z" /></g></svg>
